<svg width="85" height="84" viewBox="0 0 85 84" fill="none" xmlns="http://www.w3.org/2000/svg">
<path d="M63.369 54.2774C61.1037 52.9989 54.461 51.6291 50.1448 55.9211C54.8227 53.3846 60.3793 58.9785 64.5347 58.7518C68.6902 58.525 71.1656 54.2774 70.7157 54.7035C69.43 55.9211 65.6342 55.5558 63.369 54.2774Z" fill="#F8F3E2"/>
<path d="M46.2643 29.9872H36.4358C37.673 30.1572 39.1263 31.2377 39.1263 32.7172V48.8786C39.1263 50.2709 37.479 51.4721 36.3809 51.4721H46.2094C45.7152 51.4721 43.5464 50.6804 43.5464 48.8786V32.7172C43.5464 31.0137 45.3583 30.1874 46.2643 29.9872Z" fill="#F8F3E2"/>
<path d="M21.9025 30.3986C17.6677 30.3986 14.6092 32.4456 14.6092 36.1302H14.1084V29.9429H34.5747V35.7793H34.082C34.082 32.9175 31.019 30.3986 26.6078 30.3986V48.5292C26.6078 50.354 28.3331 51.239 29.1957 51.4535H19.3734C20.2164 51.4535 21.9025 50.8686 21.9025 48.5292V30.3986Z" fill="#F8F3E2"/>
<path fill-rule="evenodd" clip-rule="evenodd" d="M48.7925 40.2144C48.7925 45.9913 51.4811 51.8473 59.2053 51.8473C66.9294 51.8473 70.0021 46.2345 70.0021 40.2144C70.0021 34.1942 64.7958 29.4415 59.2053 29.4415C53.6148 29.4415 48.7925 34.2677 48.7925 40.2144ZM54.0404 40.2144C54.0404 45.2888 54.0404 51.423 59.2053 51.423C64.7645 51.423 64.7575 46.2436 64.7502 40.8075C64.75 40.61 64.7497 40.4122 64.7497 40.2144C64.7497 32.03 61.8938 29.9083 59.2053 29.9083C56.0473 29.9083 54.0404 32.9958 54.0404 40.2144Z" fill="#F8F3E2"/>
</svg>
